<svg id="visual" viewBox="0 0 960 540" width="960" height="540" xmlns="http://www.w3.org/2000/svg" xmlns:xlink="http://www.w3.org/1999/xlink" version="1.1"><path d="M0 98L17.8 94.5C35.7 91 71.3 84 106.8 80.5C142.3 77 177.7 77 213.2 77C248.7 77 284.3 77 320 85C355.7 93 391.3 109 426.8 110.7C462.3 112.3 497.7 99.7 533.2 97C568.7 94.3 604.3 101.7 640 103.5C675.7 105.3 711.3 101.7 746.8 94.5C782.3 87.3 817.7 76.7 853.2 74C888.7 71.3 924.3 76.7 942.2 79.3L960 82L960 0L942.2 0C924.3 0 888.7 0 853.2 0C817.7 0 782.3 0 746.8 0C711.3 0 675.7 0 640 0C604.3 0 568.7 0 533.2 0C497.7 0 462.3 0 426.8 0C391.3 0 355.7 0 320 0C284.3 0 248.7 0 213.2 0C177.7 0 142.3 0 106.8 0C71.3 0 35.7 0 17.8 0L0 0Z" fill="#222222"></path><path d="M0 147L17.8 146C35.7 145 71.3 143 106.8 139.3C142.3 135.7 177.7 130.3 213.2 128.7C248.7 127 284.3 129 320 137.2C355.7 145.3 391.3 159.7 426.8 160.5C462.3 161.3 497.7 148.7 533.2 146C568.7 143.3 604.3 150.7 640 156C675.7 161.3 711.3 164.7 746.8 161C782.3 157.3 817.7 146.7 853.2 142.2C888.7 137.7 924.3 139.3 942.2 140.2L960 141L960 80L942.2 77.3C924.3 74.7 888.7 69.3 853.2 72C817.7 74.7 782.3 85.3 746.8 92.5C711.3 99.7 675.7 103.3 640 101.5C604.3 99.7 568.7 92.3 533.2 95C497.7 97.7 462.3 110.3 426.8 108.7C391.3 107 355.7 91 320 83C284.3 75 248.7 75 213.2 75C177.7 75 142.3 75 106.8 78.5C71.3 82 35.7 89 17.8 92.5L0 96Z" fill="#262626"></path><path d="M0 217L17.8 217.8C35.7 218.7 71.3 220.3 106.8 218.5C142.3 216.7 177.7 211.3 213.2 205.2C248.7 199 284.3 192 320 194.7C355.7 197.3 391.3 209.7 426.8 214.2C462.3 218.7 497.7 215.3 533.2 215.3C568.7 215.3 604.3 218.7 640 225.8C675.7 233 711.3 244 746.8 240.5C782.3 237 817.7 219 853.2 208.2C888.7 197.3 924.3 193.7 942.2 191.8L960 190L960 139L942.2 138.2C924.3 137.3 888.7 135.7 853.2 140.2C817.7 144.7 782.3 155.3 746.8 159C711.3 162.7 675.7 159.3 640 154C604.3 148.7 568.7 141.3 533.2 144C497.7 146.7 462.3 159.3 426.8 158.5C391.3 157.7 355.7 143.3 320 135.2C284.3 127 248.7 125 213.2 126.7C177.7 128.3 142.3 133.7 106.8 137.3C71.3 141 35.7 143 17.8 144L0 145Z" fill="#2a2b2b"></path><path d="M0 390L17.8 390C35.7 390 71.3 390 106.8 379.2C142.3 368.3 177.7 346.7 213.2 342.2C248.7 337.7 284.3 350.3 320 359.3C355.7 368.3 391.3 373.7 426.8 379C462.3 384.3 497.7 389.7 533.2 392.3C568.7 395 604.3 395 640 389.7C675.7 384.3 711.3 373.7 746.8 368.3C782.3 363 817.7 363 853.2 361.2C888.7 359.3 924.3 355.7 942.2 353.8L960 352L960 188L942.2 189.8C924.3 191.7 888.7 195.3 853.2 206.2C817.7 217 782.3 235 746.8 238.5C711.3 242 675.7 231 640 223.8C604.3 216.7 568.7 213.3 533.2 213.3C497.7 213.3 462.3 216.7 426.8 212.2C391.3 207.7 355.7 195.3 320 192.7C284.3 190 248.7 197 213.2 203.2C177.7 209.3 142.3 214.7 106.8 216.5C71.3 218.3 35.7 216.7 17.8 215.8L0 215Z" fill="#333434"></path><path d="M0 492L17.8 493.8C35.7 495.7 71.3 499.3 106.8 500.3C142.3 501.3 177.7 499.7 213.2 497C248.7 494.3 284.3 490.7 320 491.5C355.7 492.3 391.3 497.7 426.8 499.5C462.3 501.3 497.7 499.7 533.2 496.2C568.7 492.7 604.3 487.3 640 488.2C675.7 489 711.3 496 746.8 496.8C782.3 497.7 817.7 492.3 853.2 492.3C888.7 492.3 924.3 497.7 942.2 500.3L960 503L960 350L942.2 351.8C924.3 353.7 888.7 357.3 853.2 359.2C817.7 361 782.3 361 746.8 366.3C711.3 371.7 675.7 382.3 640 387.7C604.3 393 568.7 393 533.2 390.3C497.7 387.7 462.3 382.3 426.8 377C391.3 371.7 355.7 366.3 320 357.3C284.3 348.3 248.7 335.7 213.2 340.2C177.7 344.7 142.3 366.3 106.8 377.2C71.3 388 35.7 388 17.8 388L0 388Z" fill="#414242"></path><path d="M0 541L17.8 541C35.7 541 71.3 541 106.8 541C142.3 541 177.7 541 213.2 541C248.7 541 284.3 541 320 541C355.7 541 391.3 541 426.8 541C462.3 541 497.7 541 533.2 541C568.7 541 604.3 541 640 541C675.7 541 711.3 541 746.8 541C782.3 541 817.7 541 853.2 541C888.7 541 924.3 541 942.2 541L960 541L960 501L942.2 498.3C924.3 495.7 888.7 490.3 853.2 490.3C817.7 490.3 782.3 495.7 746.8 494.8C711.3 494 675.7 487 640 486.2C604.3 485.3 568.7 490.7 533.2 494.2C497.7 497.7 462.3 499.3 426.8 497.5C391.3 495.7 355.7 490.3 320 489.5C284.3 488.7 248.7 492.3 213.2 495C177.7 497.7 142.3 499.3 106.8 498.3C71.3 497.3 35.7 493.7 17.8 491.8L0 490Z" fill="#4f5151"></path></svg>